
<svg width="28px" height="28px" viewBox="0 0 28 28" version="1.1" xmlns="http://www.w3.org/2000/svg" xmlns:xlink="http://www.w3.org/1999/xlink">
    <!-- Generator: Sketch 49.3 (51167) - http://www.bohemiancoding.com/sketch -->
    <desc>Created with Sketch.</desc>
    <defs></defs>
    <g id="Page-1" stroke="none" stroke-width="1" fill="none" fill-rule="evenodd">
        <g id="iPhone-6-Plus" transform="translate(-121.000000, -306.000000)" fill="#000000">
            <g id="iconmonstr-arrow-left-circle-thin" transform="translate(121.000000, 306.000000)">
                <path d="M14,0 C21.7268333,0 28,6.27316667 28,14 C28,21.7268333 21.7268333,28 14,28 C6.27316667,28 0,21.7268333 0,14 C0,6.27316667 6.27316667,0 14,0 Z M14,1.16666667 C21.0828333,1.16666667 26.8333333,6.91716667 26.8333333,14 C26.8333333,21.0828333 21.0828333,26.8333333 14,26.8333333 C6.91716667,26.8333333 1.16666667,21.0828333 1.16666667,14 C1.16666667,6.91716667 6.91716667,1.16666667 14,1.16666667 Z M8.36733333,14.5833333 L13.7433333,18.9735 L12.9511667,19.8333333 L5.83333333,14 L12.964,8.16666667 L13.741,9.04516667 L8.36966667,13.4166667 L22.1666667,13.4166667 L22.1666667,14.5833333 L8.36733333,14.5833333 Z" id="Shape"></path>
            </g>
        </g>
    </g>
</svg>