
<svg width="28px" height="28px" viewBox="0 0 28 28" version="1.1" xmlns="http://www.w3.org/2000/svg" xmlns:xlink="http://www.w3.org/1999/xlink">
    <!-- Generator: Sketch 49.3 (51167) - http://www.bohemiancoding.com/sketch -->
    <desc>Created with Sketch.</desc>
    <defs></defs>
    <g id="Page-1" stroke="none" stroke-width="1" fill="none" fill-rule="evenodd">
        <g id="iPhone-6-Plus" transform="translate(-38.000000, -649.000000)" fill="#000000">
            <g id="Group" transform="translate(10.000000, 615.000000)">
                <g id="iconmonstr-home-thin" transform="translate(28.000000, 34.000000)">
                    <path d="M25.6666667,13.3163333 L25.6666667,28 L2.33333333,28 L2.33333333,13.3163333 L0.824833333,14.8248333 L1.11022302e-16,14 L14,-1.77635684e-15 L28,14 L27.1751667,14.8248333 L25.6666667,13.3163333 Z M18.6666667,26.8333333 L24.5,26.8333333 L24.5,12.1496667 L14,1.64966667 L3.5,12.1496667 L3.5,26.8333333 L9.33333333,26.8333333 L9.33333333,16.3333333 L18.6666667,16.3333333 L18.6666667,26.8333333 Z M17.5,17.6295 L10.5,17.6295 L10.5,26.7038333 L17.5,26.7038333 L17.5,17.6295 Z" id="Shape"></path>
                </g>
            </g>
        </g>
    </g>
</svg>