
<svg width="28px" height="28px" viewBox="0 0 28 28" version="1.1" xmlns="http://www.w3.org/2000/svg" xmlns:xlink="http://www.w3.org/1999/xlink">
    <!-- Generator: Sketch 49.3 (51167) - http://www.bohemiancoding.com/sketch -->
    <desc>Created with Sketch.</desc>
    <defs></defs>
    <g id="Page-1" stroke="none" stroke-width="1" fill="none" fill-rule="evenodd">
        <g id="iPhone-6-Plus" transform="translate(-348.000000, -650.000000)" fill="#000000">
            <g id="Group" transform="translate(10.000000, 615.000000)">
                <g id="iconmonstr-plus-circle-thin-(2)-copy" transform="translate(338.000000, 35.000000)">
                    <path d="M14,0 C21.7267826,0 28,6.27321739 28,14 C28,21.7267826 21.7267826,28 14,28 C6.27321739,28 0,21.7267826 0,14 C0,6.27321739 6.27321739,0 14,0 Z M14,1.2173913 C21.0547826,1.2173913 26.7826087,6.94521739 26.7826087,14 C26.7826087,21.0547826 21.0547826,26.7826087 14,26.7826087 C6.94521739,26.7826087 1.2173913,21.0547826 1.2173913,14 C1.2173913,6.94521739 6.94521739,1.2173913 14,1.2173913 Z" id="Shape"></path>
                </g>
            </g>
        </g>
    </g>
</svg>